# MechaGen export — bracket
# Generated: 2026-03-26T00:12:23.604Z

o bracket

# base_plate
v -40.0000 -2.0000 -30.0000
v 40.0000 -2.0000 -30.0000
v 40.0000 2.0000 -30.0000
v -40.0000 2.0000 -30.0000
v -40.0000 -2.0000 30.0000
v 40.0000 -2.0000 30.0000
v 40.0000 2.0000 30.0000
v -40.0000 2.0000 30.0000

f 1 2 3
f 1 3 4
f 6 5 8
f 6 8 7
f 5 1 4
f 5 4 8
f 2 6 7
f 2 7 3
f 4 3 7
f 4 7 8
f 5 6 2
f 5 2 1

# hole_1
v 10.0000 2.2500 10.0000
v 10.0000 -2.2500 10.0000
v 12.7500 2.2500 10.0000
v 12.7500 -2.2500 10.0000
v 12.5407 2.2500 11.0524
v 12.5407 -2.2500 11.0524
v 11.9445 2.2500 11.9445
v 11.9445 -2.2500 11.9445
v 11.0524 2.2500 12.5407
v 11.0524 -2.2500 12.5407
v 10.0000 2.2500 12.7500
v 10.0000 -2.2500 12.7500
v 8.9476 2.2500 12.5407
v 8.9476 -2.2500 12.5407
v 8.0555 2.2500 11.9445
v 8.0555 -2.2500 11.9445
v 7.4593 2.2500 11.0524
v 7.4593 -2.2500 11.0524
v 7.2500 2.2500 10.0000
v 7.2500 -2.2500 10.0000
v 7.4593 2.2500 8.9476
v 7.4593 -2.2500 8.9476
v 8.0555 2.2500 8.0555
v 8.0555 -2.2500 8.0555
v 8.9476 2.2500 7.4593
v 8.9476 -2.2500 7.4593
v 10.0000 2.2500 7.2500
v 10.0000 -2.2500 7.2500
v 11.0524 2.2500 7.4593
v 11.0524 -2.2500 7.4593
v 11.9445 2.2500 8.0555
v 11.9445 -2.2500 8.0555
v 12.5407 2.2500 8.9476
v 12.5407 -2.2500 8.9476

f 11 27 28
f 11 28 12
f 9 12 11
f 10 27 28
f 12 28 29
f 12 29 13
f 9 13 12
f 10 28 29
f 13 29 30
f 13 30 14
f 9 14 13
f 10 29 30
f 14 30 31
f 14 31 15
f 9 15 14
f 10 30 31
f 15 31 32
f 15 32 16
f 9 16 15
f 10 31 32
f 16 32 33
f 16 33 17
f 9 17 16
f 10 32 33
f 17 33 34
f 17 34 18
f 9 18 17
f 10 33 34
f 18 34 35
f 18 35 19
f 9 19 18
f 10 34 35
f 19 35 36
f 19 36 20
f 9 20 19
f 10 35 36
f 20 36 37
f 20 37 21
f 9 21 20
f 10 36 37
f 21 37 38
f 21 38 22
f 9 22 21
f 10 37 38
f 22 38 39
f 22 39 23
f 9 23 22
f 10 38 39
f 23 39 40
f 23 40 24
f 9 24 23
f 10 39 40
f 24 40 41
f 24 41 25
f 9 25 24
f 10 40 41
f 25 41 42
f 25 42 26
f 9 26 25
f 10 41 42
f 26 42 27
f 26 27 11
f 9 11 26
f 10 42 27
